<svg width="906" height="1224" viewBox="0 0 906 1224" fill="none" xmlns="http://www.w3.org/2000/svg">
<path d="M871 784C871 1006.72 684.823 1189 453 1189C221.177 1189 35 1006.72 35 784C35 561.278 221.177 379 453 379C684.823 379 871 561.278 871 784Z" fill="#FDE8CC" stroke="#FBD19B" stroke-width="70"/>
<path d="M669.8 1088.5C632 1088.5 602.6 1075.9 581.6 1050.7C561.3 1026.2 548 995.75 541.7 959.35C536.1 922.95 531.2 886.2 527 849.1C517.9 757.4 490.6 707.35 445.1 698.95L363.2 807.1V994H258.2V206.5H363.2V772.45L495.5 597.1C522.1 561.4 553.25 532.35 588.95 509.95C624.65 487.55 661.4 476.35 699.2 476.35C712.5 476.35 719.15 479.5 719.15 485.8C719.15 494.2 714.95 498.4 706.55 498.4C686.95 498.4 669.8 499.8 655.1 502.6C641.1 504.7 620.1 514.85 592.1 533.05C564.1 551.25 536.8 577.85 510.2 612.85L458.75 680.05C474.15 678.65 484.3 677.95 489.2 677.95C524.9 677.95 553.6 687.75 575.3 707.35C597.7 726.25 612.05 750.05 618.35 778.75C625.35 807.45 630.6 838.95 634.1 873.25C638.3 906.85 640.75 938 641.45 966.7C642.85 995.4 648.1 1019.2 657.2 1038.1C666.3 1057.7 679.25 1067.5 696.05 1067.5C712.85 1067.5 727.55 1062.6 740.15 1052.8C752.75 1043.7 762.55 1034.25 769.55 1024.45C776.55 1015.35 781.45 1010.8 784.25 1010.8C787.05 1010.8 788.45 1012.2 788.45 1015C788.45 1018.5 787.4 1022.35 785.3 1026.55C764.3 1067.85 725.8 1088.5 669.8 1088.5Z" fill="#FBD19B"/>
</svg>
